<?xml version="1.0" encoding="UTF-8" standalone="no"?>
<!DOCTYPE svg PUBLIC "-//W3C//DTD SVG 1.1//EN" "http://www.w3.org/Graphics/SVG/1.1/DTD/svg11.dtd">
<svg width="100%" height="100%" viewBox="0 0 460 488" version="1.1" xmlns="http://www.w3.org/2000/svg" xmlns:xlink="http://www.w3.org/1999/xlink" xml:space="preserve" xmlns:serif="http://www.serif.com/" style="fill-rule:evenodd;clip-rule:evenodd;stroke-linejoin:round;stroke-miterlimit:2;">
    <g transform="matrix(1,0,0,1,-520.1,-356.063)">
        <g transform="matrix(1,0,0,1,397.119,223.727)">
            <g transform="matrix(0.333265,-0.566585,0.602089,0.354149,-30.261,464.06)">
                <path d="M400,103.892C179.082,103.892 0,243.159 0,414.959C0,520.939 149.591,521.448 274.212,503.464C366.597,490.133 439.453,525.722 439.453,596.441C439.453,667.16 517.585,722.081 602.474,683.27C720.667,629.22 800,529.306 800,414.959C800,243.159 620.902,103.892 400,103.892ZM147.881,335.166C126.873,335.166 109.859,318.136 109.859,297.144C109.859,276.135 126.889,259.121 147.881,259.121C168.874,259.121 185.904,276.152 185.904,297.144C185.904,318.136 168.874,335.166 147.881,335.166ZM272.289,253.384C251.28,253.384 234.266,236.354 234.266,215.362C234.266,194.353 251.297,177.339 272.289,177.339C293.297,177.339 310.311,194.37 310.311,215.362C310.328,236.354 293.297,253.384 272.289,253.384ZM438.022,240.003C417.014,240.003 400,222.973 400,201.981C400,180.972 417.03,163.958 438.022,163.958C459.031,163.958 476.045,180.989 476.045,201.981C476.045,222.973 459.031,240.003 438.022,240.003ZM574.643,618.88C539.859,618.88 511.667,590.688 511.667,555.904C511.667,521.119 539.859,492.927 574.643,492.927C609.428,492.927 637.62,521.119 637.62,555.904C637.62,590.655 609.428,618.88 574.643,618.88ZM599.597,291.39C578.605,291.39 561.591,274.36 561.591,253.368C561.591,232.376 578.605,215.345 599.597,215.345C620.606,215.345 637.62,232.376 637.62,253.368C637.62,274.376 620.589,291.39 599.597,291.39ZM675.659,438.039C654.667,438.039 637.653,421.009 637.653,400.016C637.653,379.008 654.683,361.994 675.659,361.994C696.667,361.994 713.681,379.024 713.681,400.016C713.681,421.009 696.651,438.039 675.659,438.039Z" style="fill:rgb(232,254,153);fill-rule:nonzero;"/>
            </g>
        </g>
    </g>
</svg>
